# xmcd
#
# Track frame offsets:
#	150
#	5481
#	24883
#	47064
#	74046
#	92110
#	122002
#	141636
#	161344
#	171413
#	200068
#	218901
#	247293
#	267071
#
# Disc length: 3870 seconds
#
# Revision: 1
# Processed by: cddbd v1.5PL3 Copyright (c) Steve Scherf et al.
# Submitted via: CDmax 2.0
#
DISCID=d50f1c0e
DTITLE=Jorma Kaukonen and Michael Falzarano - Live at Poor David's Pub, Dalla
DTITLE=s TX - 03.18.2001 - d1
DYEAR=2001
DGENRE=Blues
TTITLE0=Intro
TTITLE1=True Religion
TTITLE2=Uncle Sam Blues
TTITLE3=Death Don't Have No Mercy
TTITLE4=Do Not Go Gentle
TTITLE5=I See The Light
TTITLE6=The Terrible Operation
TTITLE7=Living In The Moment
TTITLE8=Embryonic Journey
TTITLE9=Good Shepherd
TTITLE10=99 Year Blues
TTITLE11=Gypsy Fire
TTITLE12=San Francisco Bay Blues
TTITLE13=Big Fish
EXTD=03-18-01\nPoor David's Pub, Dallas, TX\nw/Michael Falzarano\n\nSet 1: Di
EXTD=sc 1\n01. Intro\n02. True Religion \n03. Uncle Sam Blues \n04. Death Don
EXTD='t Have No Mercy \n05. Do Not Go Gentle \n06. I See The Light \n07. Th
EXTD=e Terrible Operation \n08. Living In The Moment \n09. Embryonic Journe
EXTD=y \n10. Good Shepherd \n11. 99 Year Blues \n12. Gypsy Fire \n13. San Fra
EXTD=ncisco Bay Blues \n14. Big Fish \n\nSet 2: Disc 2\n01. Hesitation Blue
EXTD=s \n02. Walking Blues \n03. Trouble In Mind \n04. How Long Blues \n05. B
EXTD=een So Long \n06. Vampire Women \n07. Follow The Drinking Gourd \n08
EXTD=I Am The Light Of This World \n09. Genesis \n10. Another Man Done Gon
EXTD=e \n11. Parchman Farm \n12. A Life Well Lived \n13. That'll Never Happe
EXTD=n No More \n14. Nine Pound Hammer \n\nEncore:\n15. Goin' Down The Road F
EXTD=eelin' Bad
EXTT0=
EXTT1=
EXTT2=
EXTT3=
EXTT4=
EXTT5=
EXTT6=
EXTT7=
EXTT8=
EXTT9=
EXTT10=
EXTT11=
EXTT12=
EXTT13=
PLAYORDER=
